PathFileType	4	(X/Y/Z)	C:\Users\Graham\Documents\MATLAB\MOtoNMS_v2_2\MyData\ElaboratedData\S6\17-05-19\staticElaborations\Static1\Static1\\Static1.trc
DataRate	CameraRate	NumFrames	NumMarkers	Units	OrigDataRate	DataStartFrame
100	100	9	38	mm	100	2
Frame#	Time	V_Sacral			R_ASIS			L_ASIS			R_Knee_Lat			R_Knee_Med			R_Thigh_Upper			R_Thigh_Front			R_Thigh_Rear			L_Knee_Lat			L_Knee_Med			L_Thigh_Upper			L_Thigh_Front			L_Thigh_Rear			R_Ankle_Lat			R_Ankle_Med			R_Shank_Upper			R_Shank_Front			R_Shank_Rear			L_Ankle_Lat			L_Ankle_Med			L_Shank_Upper			L_Shank_Front			L_Shank_Rear			R_Heel			R_MTP1			R_MTP5			L_Heel			L_MTP1			L_MTP5			Clavicle			R_Acromium			L_Acromium			LAJC			RAJC			LHJC			RHJC			LKJC			RKJC		
		X1	Y1	Z1	X2	Y2	Z2	X3	Y3	Z3	X4	Y4	Z4	X5	Y5	Z5	X6	Y6	Z6	X7	Y7	Z7	X8	Y8	Z8	X9	Y9	Z9	X10	Y10	Z10	X11	Y11	Z11	X12	Y12	Z12	X13	Y13	Z13	X14	Y14	Z14	X15	Y15	Z15	X16	Y16	Z16	X17	Y17	Z17	X18	Y18	Z18	X19	Y19	Z19	X20	Y20	Z20	X21	Y21	Z21	X22	Y22	Z22	X23	Y23	Z23	X24	Y24	Z24	X25	Y25	Z25	X26	Y26	Z26	X27	Y27	Z27	X28	Y28	Z28	X29	Y29	Z29	X30	Y30	Z30	X31	Y31	Z31	X32	Y32	Z32	X33	Y33	Z33	X34	Y34	Z34	X35	Y35	Z35	X36	Y36	Z36	X37	Y37	Z37	X38	Y38	Z38	

55	0.540000	-128.091174	1063.650907	16.641096	80.523533	1060.782320	168.085354	85.550790	1057.833342	-99.710744	-34.649458	547.621977	208.310442	5.295888	539.594816	88.310139	90.258097	815.176780	198.703184	91.953123	702.661922	150.899384	48.248902	707.493422	213.294844	-19.014584	559.997681	-139.938837	8.173600	531.162197	-24.977376	112.924402	804.395555	-99.539139	93.939028	690.271972	-54.899277	70.952194	690.775711	-130.086962	-135.087007	102.812998	206.114504	-81.010204	111.209289	120.517864	-13.613947	366.573298	190.108641	-39.580818	251.150034	149.882480	-59.503311	256.884515	214.904232	-115.798865	97.955934	-153.640397	-68.320532	100.486562	-63.985105	-5.203588	374.038643	-129.978984	-23.558921	265.917950	-91.309014	-47.716581	268.317249	-159.317441	-187.797367	32.188736	146.324502	45.540776	61.224361	187.313645	-0.939564	54.997548	256.648410	-173.408258	50.362818	-99.823344	66.422408	53.732249	-112.664870	28.137824	48.321901	-200.921949	72.045474	1486.116400	18.875809	-26.539526	1540.319339	223.878229	-9.280804	1530.246660	-182.370837	-92.059698	99.221248	-108.812751	-108.048606	107.011143	163.316184	22.144527	968.313164	-61.670080	18.552521	970.420227	129.671888	-5.420492	545.579939	-82.458107	-14.676785	543.608396	148.310290	
56	0.550000	-128.066793	1063.659304	16.649919	80.534530	1060.769227	168.111294	85.563109	1057.805881	-99.695581	-34.649181	547.621334	208.315189	5.309591	539.632182	88.317197	90.259619	815.170709	198.715113	91.949490	702.655313	150.911647	48.248642	707.486960	213.306515	-18.983328	559.971299	-139.949747	8.198251	531.137399	-24.932370	112.951391	804.385207	-99.514345	93.982722	690.255654	-54.880872	70.965587	690.754977	-130.077630	-135.087165	102.812566	206.112972	-81.009776	111.208399	120.516855	-13.613741	366.575349	190.110101	-39.576229	251.151266	149.882727	-59.505465	256.884357	214.903199	-115.797257	97.957170	-153.637902	-68.319377	100.485207	-63.981857	-5.186552	374.035486	-129.968352	-23.550556	265.913391	-91.300984	-47.705295	268.315053	-159.307716	-187.797141	32.188820	146.325195	45.543578	61.225331	187.309394	-0.939332	54.997396	256.646357	-173.408582	50.362877	-99.822726	66.423782	53.731314	-112.663547	28.138079	48.323826	-200.921324	72.085330	1486.102736	18.863288	-26.443368	1540.344340	223.875893	-9.261211	1530.219391	-182.378695	-92.058317	99.221189	-108.809879	-108.048471	107.010482	163.314914	22.146498	968.293292	-61.648809	18.553559	970.410615	129.700262	-5.392538	545.554349	-82.441058	-14.669795	543.626758	148.316193	
57	0.560000	-128.041269	1063.667806	16.661496	80.548386	1060.755365	168.135716	85.572937	1057.776578	-99.680172	-34.650648	547.620558	208.321043	5.321093	539.668793	88.324953	90.260462	815.163985	198.727727	91.942634	702.646932	150.925638	48.246841	707.479662	213.320611	-18.957431	559.946289	-139.957725	8.221729	531.111912	-24.888420	112.972119	804.374670	-99.493024	94.017085	690.237248	-54.867574	70.972870	690.735146	-130.072554	-135.087645	102.811599	206.111311	-81.009622	111.207284	120.516408	-13.614824	366.577349	190.112188	-39.572272	251.152207	149.883661	-59.508793	256.883776	214.902585	-115.795970	97.958169	-153.635426	-68.318142	100.483591	-63.978061	-5.171914	374.032471	-129.957502	-23.543415	265.908984	-91.292690	-47.696113	268.312806	-159.297215	-187.796364	32.188451	146.326098	45.545970	61.226775	187.305001	-0.938578	54.997346	256.644304	-173.409091	50.362462	-99.821768	66.424898	53.730271	-112.662205	28.138428	48.325980	-200.920480	72.120812	1486.086529	18.849640	-26.342537	1540.370949	223.874345	-9.246496	1530.191741	-182.386110	-92.057056	99.220880	-108.806744	-108.048634	107.009441	163.313860	22.146394	968.272732	-61.626001	18.556342	970.401082	129.729014	-5.367851	545.529101	-82.423073	-14.664777	543.644676	148.322998	
58	0.570000	-128.015314	1063.675984	16.676259	80.564929	1060.740789	168.158349	85.579740	1057.745800	-99.664704	-34.653545	547.619470	208.327423	5.328290	539.698914	88.332318	90.261211	815.156484	198.740872	91.933713	702.636940	150.940781	48.243910	707.471468	213.336448	-18.937261	559.922760	-139.962608	8.242404	531.085246	-24.845341	112.986978	804.364226	-99.474540	94.039284	690.216771	-54.859121	70.979487	690.717845	-130.069532	-135.088333	102.810173	206.109647	-81.010036	111.206025	120.516364	-13.616991	366.579000	190.114452	-39.569469	251.152607	149.884871	-59.512705	256.882685	214.902312	-115.795031	97.959088	-153.632855	-68.316801	100.481684	-63.973569	-5.159823	374.029571	-129.946174	-23.537418	265.904930	-91.284150	-47.689128	268.310668	-159.285904	-187.795169	32.187607	146.327216	45.547514	61.228397	187.301372	-0.937527	54.997285	256.642212	-173.409689	50.361640	-99.820401	66.425709	53.729087	-112.660862	28.138864	48.328246	-200.919420	72.151838	1486.067669	18.835565	-26.238465	1540.398692	223.873807	-9.236922	1530.162713	-182.392731	-92.055916	99.220386	-108.803212	-108.049185	107.008099	163.313005	22.143947	968.251638	-61.601870	18.560861	970.391560	129.757873	-5.347428	545.504003	-82.403975	-14.662628	543.659192	148.329870	
59	0.580000	-127.989850	1063.683453	16.694579	80.583825	1060.725664	168.179030	85.582937	1057.714137	-99.649333	-34.657305	547.617927	208.333733	5.329511	539.717532	88.338266	90.262626	815.148133	198.754217	91.924228	702.625686	150.956237	48.240607	707.462430	213.353073	-18.922687	559.900836	-139.964428	8.259127	531.057398	-24.803100	112.996630	804.354144	-99.458346	94.048354	690.194554	-54.854798	70.988885	690.703962	-130.066635	-135.089095	102.808380	206.108132	-81.011202	111.204694	120.516553	-13.619855	366.580015	190.116453	-39.568253	251.152253	149.885942	-59.516535	256.881036	214.902280	-115.794429	97.960057	-153.630075	-68.315344	100.479436	-63.968299	-5.150272	374.026725	-129.934116	-23.532421	265.901361	-91.275401	-47.684258	268.308786	-159.273818	-187.793809	32.186336	146.328533	45.547950	61.229953	187.299128	-0.936366	54.997095	256.640049	-173.410256	50.360534	-99.818589	66.426176	53.727749	-112.659521	28.139368	48.330519	-200.918170	72.178617	1486.046331	18.821779	-26.132663	1540.427232	223.874436	-9.232282	1530.131700	-182.398183	-92.054886	99.219746	-108.799187	-108.050148	107.006537	163.312343	22.138858	968.230307	-61.576653	18.566995	970.382042	129.786601	-5.331780	545.479117	-82.383764	-14.663897	543.667729	148.335999	
60	0.590000	-127.965916	1063.689873	16.716757	80.604672	1060.710228	168.197750	85.581960	1057.682304	-99.634150	-34.661177	547.615830	208.339470	5.323969	539.721543	88.342060	90.265559	815.138932	198.767289	91.915873	702.613638	150.971025	48.237998	707.452689	213.369412	-18.913130	559.880584	-139.963369	8.271495	531.028770	-24.761702	113.001925	804.344650	-99.444021	94.045395	690.171227	-54.853542	71.002504	690.693639	-130.062380	-135.089798	102.806312	206.106925	-81.013156	111.203331	120.516822	-13.622897	366.580162	190.117828	-39.568883	251.150998	149.886524	-59.519639	256.878823	214.902381	-115.794108	97.961147	-153.626977	-68.313759	100.476798	-63.962233	-5.143097	374.023852	-129.921143	-23.528218	265.898316	-91.266480	-47.681278	268.307272	-159.261057	-187.792611	32.184745	146.329999	45.547249	61.231299	187.298466	-0.935242	54.996690	256.637789	-173.410673	50.359306	-99.816335	66.426279	53.726270	-112.658173	28.139918	48.332717	-200.916777	72.201621	1486.022949	18.808887	-26.026466	1540.456340	223.876286	-9.231959	1530.098578	-182.402136	-92.053933	99.218972	-108.794605	-108.051477	107.004821	163.311873	22.130827	968.209111	-61.550540	18.574561	970.372560	129.815062	-5.320817	545.454677	-82.362536	-14.668604	543.668686	148.340765	
61	0.600000	-127.944556	1063.694962	16.743013	80.627089	1060.694762	168.214677	85.576301	1057.651034	-99.619160	-34.664325	547.613120	208.344306	5.312041	539.710569	88.343396	90.270879	815.128953	198.779547	91.910346	702.601322	150.984175	48.237361	707.442446	213.384424	-18.907666	559.861970	-139.959712	8.279936	531.000039	-24.721161	113.003804	804.335925	-99.431286	94.033379	690.147668	-54.854094	71.020226	690.686441	-130.055792	-135.090325	102.804055	206.106157	-81.015787	111.201938	120.517041	-13.625531	366.579292	190.118339	-39.571387	251.148785	149.886364	-59.521476	256.876079	214.902504	-115.793980	97.962359	-153.623453	-68.312019	100.473739	-63.955418	-5.137999	374.020865	-129.907193	-23.524557	265.895734	-91.257414	-47.679867	268.306187	-159.247780	-187.791909	32.182969	146.331524	45.545632	61.232415	187.299100	-0.934255	54.996054	256.635424	-173.410840	50.358132	-99.813694	66.426020	53.724694	-112.656806	28.140497	48.334788	-200.915296	72.221559	1485.998152	18.797291	-25.920810	1540.485861	223.879290	-9.235030	1530.063734	-182.404378	-92.052999	99.218049	-108.789435	-108.053056	107.002997	163.311599	22.119582	968.188426	-61.523618	18.583377	970.363165	129.843279	-5.313865	545.431005	-82.340436	-14.676142	543.661845	148.343851	
62	0.610000	-127.926712	1063.698513	16.773494	80.650788	1060.679552	168.230135	85.565564	1057.620993	-99.604272	-34.665912	547.609774	208.348134	5.295278	539.687137	88.342445	90.279390	815.118341	198.790465	91.909158	702.589247	150.994860	48.240048	707.431911	213.397239	-18.905155	559.844856	-139.953794	8.285615	530.972004	-24.681515	113.003185	804.328112	-99.419991	94.016627	690.124921	-54.855163	71.041070	690.681626	-130.046378	-135.090590	102.801681	206.105928	-81.018866	111.200481	120.517115	-13.627175	366.577349	190.117876	-39.575549	251.145651	149.885313	-59.521649	256.872867	214.902551	-115.793941	97.963628	-153.619400	-68.310082	100.470266	-63.947952	-5.134572	374.017700	-129.892355	-23.521151	265.893467	-91.248216	-47.679661	268.305532	-159.234183	-187.791973	32.181145	146.332996	45.543519	61.233385	187.300325	-0.933478	54.995267	256.632972	-173.410700	50.357168	-99.810774	66.425432	53.723098	-112.655409	28.141088	48.336705	-200.913789	72.239331	1485.972686	18.787119	-25.816085	1540.515680	223.883262	-9.240412	1530.028013	-182.404854	-92.052011	99.216947	-108.783676	-108.054728	107.001081	163.311522	22.104907	968.168583	-61.495855	18.593307	970.353919	129.871445	-5.309770	545.408430	-82.317654	-14.685317	543.648455	148.345289	
63	0.620000	-127.913113	1063.700428	16.808285	80.675622	1060.664865	168.244562	85.549503	1057.592703	-99.589329	-34.665158	547.605776	208.351079	5.276134	539.656155	88.339767	90.291765	815.107277	198.799613	91.913449	702.577843	151.002494	48.247321	707.421253	213.407251	-18.904393	559.829029	-139.945975	8.290214	530.945440	-24.642872	113.000853	804.321322	-99.410096	94.000093	690.104079	-54.855603	71.063881	690.678432	-130.034051	-135.090536	102.799236	206.106298	-81.022097	111.198896	120.516979	-13.627326	366.574342	190.116445	-39.580952	251.141708	149.883303	-59.519914	256.869258	214.902433	-115.793894	97.964836	-153.614737	-68.307900	100.466424	-63.939978	-5.132335	374.014325	-129.876876	-23.517715	265.891307	-91.238886	-47.680296	268.305244	-159.220487	-187.792952	32.179378	146.334294	45.541438	61.234358	187.301182	-0.932959	54.994502	256.630488	-173.410244	50.356521	-99.807726	66.424583	53.721584	-112.653973	28.141678	48.338462	-200.912309	72.255970	1485.947319	18.778205	-25.712101	1540.545706	223.887910	-9.247006	1529.992598	-182.403699	-92.050897	99.215630	-108.777357	-108.056317	106.999066	163.311639	22.086659	968.149835	-61.467102	18.604277	970.344890	129.899889	-5.307089	545.387234	-82.294424	-14.694512	543.630965	148.345423	
